<svg xmlns="http://www.w3.org/2000/svg" xmlns:xlink="http://www.w3.org/1999/xlink" width="500" zoomAndPan="magnify" viewBox="0 0 375 374.999991" height="500" preserveAspectRatio="xMidYMid meet" version="1.0"><path fill="#ff751f" d="M 94.578125 57.871094 L 210.382812 57.871094 L 216.832031 58.488281 L 222.054688 59.40625 L 227.890625 60.945312 L 234.035156 63.09375 L 239.5625 65.550781 L 245.09375 68.625 L 248.777344 71.082031 L 252.464844 73.84375 L 257.070312 77.839844 L 261.988281 82.753906 L 265.367188 87.054688 L 268.746094 91.660156 L 272.738281 98.726562 L 275.195312 103.949219 L 277.960938 111.933594 L 279.496094 119 L 280.417969 126.066406 L 280.417969 137.738281 L 279.1875 146.339844 L 277.960938 151.867188 L 276.117188 157.398438 L 273.351562 164.15625 L 269.359375 171.21875 L 266.902344 174.90625 L 263.832031 178.898438 L 259.53125 183.507812 L 257.992188 185.351562 L 255.535156 187.5 L 251.542969 190.878906 L 247.550781 193.644531 L 243.554688 196.101562 L 240.484375 197.945312 L 232.191406 201.628906 L 222.976562 204.394531 L 215.296875 205.625 L 212.53125 205.929688 L 163.382812 206.238281 L 157.855469 207.160156 L 154.167969 208.386719 L 148.945312 211.152344 L 144.953125 214.222656 L 141.574219 217.601562 L 139.425781 220.675781 L 136.96875 225.589844 L 135.738281 228.96875 L 134.816406 232.960938 L 134.507812 235.417969 L 134.203125 278.730469 L 132.667969 280.265625 L 132.050781 281.1875 L 131.4375 281.1875 L 131.4375 281.800781 L 130.824219 281.800781 L 130.824219 282.417969 L 130.210938 282.417969 L 130.210938 283.03125 L 129.59375 283.03125 L 129.59375 283.644531 L 128.980469 283.644531 L 128.980469 284.261719 L 128.367188 284.261719 L 128.367188 284.875 L 127.75 284.875 L 127.75 285.488281 L 127.136719 285.488281 L 127.136719 286.101562 L 126.523438 286.101562 L 126.523438 286.71875 L 125.910156 286.71875 L 125.910156 287.332031 L 125.292969 287.332031 L 125.292969 287.945312 L 124.679688 287.945312 L 124.679688 288.558594 L 124.066406 288.558594 L 124.066406 289.175781 L 123.453125 289.175781 L 123.453125 289.789062 L 122.835938 289.789062 L 122.835938 290.402344 L 122.222656 290.402344 L 122.222656 291.019531 L 121.609375 291.019531 L 121.609375 291.632812 L 120.992188 291.632812 L 120.992188 292.246094 L 120.378906 292.246094 L 120.378906 292.859375 L 119.765625 292.859375 L 119.765625 293.476562 L 119.152344 293.476562 L 119.152344 294.089844 L 118.535156 294.089844 L 118.535156 294.703125 L 117.921875 294.703125 L 117.921875 295.316406 L 117.308594 295.316406 L 117.308594 295.933594 L 116.695312 295.933594 L 116.695312 296.546875 L 116.078125 296.546875 L 116.078125 297.160156 L 115.464844 297.160156 L 115.464844 297.777344 L 114.851562 297.777344 L 114.851562 298.390625 L 114.234375 298.390625 L 114.234375 299.003906 L 113.621094 299.003906 L 113.007812 300.234375 L 111.777344 300.847656 L 111.164062 302.074219 L 96.417969 316.820312 L 95.804688 316.820312 L 95.804688 244.019531 L 96.417969 236.953125 L 97.648438 230.195312 L 99.183594 224.359375 L 101.949219 216.679688 L 105.636719 209.003906 L 109.015625 203.472656 L 113.007812 197.945312 L 117 193.335938 L 122.835938 187.5 L 126.214844 184.734375 L 128.671875 182.890625 L 129.289062 182.890625 L 129.289062 182.277344 L 132.667969 180.128906 L 137.886719 177.054688 L 142.804688 174.597656 L 150.484375 171.527344 L 155.703125 169.992188 L 163.078125 168.457031 L 171.371094 167.535156 L 209.765625 167.226562 L 213.761719 166.613281 L 217.445312 165.691406 L 222.054688 163.847656 L 226.355469 161.390625 L 229.425781 158.933594 L 230.347656 158.011719 L 230.960938 158.011719 L 231.578125 156.78125 L 234.035156 154.324219 L 236.183594 151.253906 L 238.640625 146.953125 L 240.484375 141.730469 L 241.40625 138.042969 L 241.714844 134.972656 L 241.714844 129.136719 L 241.097656 124.527344 L 239.5625 119.308594 L 237.105469 114.390625 L 234.339844 110.09375 L 230.039062 105.484375 L 226.96875 103.027344 L 221.746094 99.957031 L 217.140625 98.113281 L 213.761719 97.191406 L 209.460938 96.578125 L 132.667969 96.269531 L 113.316406 76.917969 L 113.316406 76.300781 L 112.085938 75.6875 L 112.085938 75.074219 L 110.855469 74.460938 L 109.628906 73.230469 L 109.628906 72.617188 L 108.398438 72.003906 L 107.785156 70.773438 L 106.554688 70.160156 L 105.941406 68.929688 L 104.714844 68.316406 L 104.097656 67.085938 L 103.484375 67.085938 L 103.484375 66.472656 L 102.257812 65.859375 L 101.640625 64.628906 L 100.414062 64.015625 L 98.261719 61.867188 L 96.726562 60.328125 L 95.5 58.792969 Z M 94.578125 57.871094 " fill-opacity="1" fill-rule="nonzero"/></svg>